<svg xmlns="http://www.w3.org/2000/svg" width="500" height="500" viewBox="0 0 500 500"><g fill="none" stroke-width="2"><path stroke="#4162a5" d="M211.14 243.92c-1.42-4.52-2.56-8.58-3.87-11.97-5.93-15.31-13.2-32.66-13.97-49.41-.81-17.74 9.05-28.94 24.58-35.9 8.35-3.75 15-2.52 23.16 1.94q2.175 1.185 10.59 5.34c.68.34 1.49.31 2.14-.08 2.49-1.47 6.12-3.18 10.91-5.13 18.7-7.63 35.73-3.06 45.79 14.77 5.51 9.75 6.75 20.1 3.7 31.05q-2.01 7.215-4.08 13.08c-.45 1.29-5.17 14.91-14.15 40.84-.51 1.45-1.89 4.73-4.14 9.85q-2.715 6.195-8.22 6.6c-6.51.46-10.58-3.56-12.43-9.3-2.09-6.51-3.72-13.15-4.91-19.94-.07-.4.07-.81.37-1.08 4.7-4.33 9.22-8.76 10.88-14.83.5-1.82 1.02-5.5 1.55-11.03.62-6.41.83-11.98.63-16.69-.22-5.12-1.29-11.5-5.15-15.19-3.6-3.44-10.67-2.12-14.52.17-.82.49-1.35 1.06-1.6 1.72-.46 1.19.25 2.54 1.55 2.95 3.29 1.05 5.97 1.96 8.04 2.71 1.17.42 1.84 1.47 2.03 3.14q1.11 9.99 1.05 15.96c-.1 8.64-3.61 14.55-8.24 21.63-.58.89-1.61 1.38-2.67 1.26-9.47-1.06-16.91-5.19-22.32-12.4-4.19-5.58-6.02-12.35-7.21-19.25-.13-.75.23-1.5.89-1.89l6.67-3.85c.42-.25.68-.7.66-1.19-.04-1.3-.26-2.33-.67-3.09-.24-.45-.62-.8-1.09-.99-4.32-1.76-10.14-1.26-13.08 2.87-3.33 4.7-2.86 11.34-.74 16.42 2.83 6.79 6.11 13.74 9.82 20.85 4.8 9.18 14.38 10.73 23.5 13.12.32.08.56.33.63.65 2.13 9.52 4.01 19.53 9.08 28.37 4.88 8.52 17.23 9.82 25.16 5.68 4.15-2.16 6.59-6.58 8.7-10.79 8.64-17.23 12.58-34.96 20-56.41 3.82-11.05 5.86-23.2 3.19-34.35-2.65-11.04-11.09-20.94-20.17-27.33q-14.445-10.155-31.89-5.22c-2.4.68-6.63 2.1-12.7 4.27-6.11 2.18-8.83-.2-14.01-2.76-6.64-3.26-15.06-3.89-22.06-2.78-19.43 3.09-34.14 19.46-37.77 38.3-1.47 7.66-1.03 14.24 1.04 21.61 5.18 18.43 11.62 37.17 19.33 56.21 2.41 5.95 4.19 9.91 5.32 11.88 1.88 3.27 4.13 5.61 6.76 7.04 5.23 2.84 10.74 3.95 16.62 1.45 8.13-3.46 10.98-11.6 9.5-19.8-1.35-7.51-5.7-12.01-13.05-13.52-6.44-1.33-12.23 1.73-18.02 4.88-.43.23-.96.02-1.11-.44" vector-effect="non-scaling-stroke"/><path stroke="#7f8da6" d="M339.91 288.69a3.35 3.35 0 1 0-6.7 0 3.35 3.35 0 0 0 6.7 0m-201.92 13.74c-1.49 6.84-10.47 7.57-13.69 1.84-1.06-1.89-1.13-6.03-.5-7.97 2.05-6.33 10.59-6.91 12.42.02.12.46.59.73 1.05.61l4.11-1.09c.44-.12.71-.56.62-1-1.4-6.76-6.9-9.15-13.41-8.73-17.8 1.15-14.82 31.94 5.99 26.94 5.42-1.3 8.64-4.7 9.65-10.21a.92.92 0 0 0-.91-1.08h-4.51c-.4 0-.74.28-.82.67m165.246-15a.763.763 0 0 0-.11-1.068l-.047-.038a.76.76 0 0 0-1.069.11l-3.506 4.315a.764.764 0 0 0 .11 1.07l.047.037a.76.76 0 0 0 1.069-.11l3.506-4.315m21.864-1.121v11.01c0 .29-.36.42-.54.19-2.42-3.11-5.54-3.85-9.36-2.21-4.78 2.04-5.43 8.45-4 12.76 1.15 3.49 3.59 5.31 7.3 5.46 2.63.11 4.66-.88 6.08-2.97.3-.44.98-.22.98.31v1.39c0 .4.33.73.74.73h3.94c.28 0 .5-.22.5-.5v-26.19c0-.15-.12-.27-.26-.27h-5.08c-.17 0-.3.13-.3.29M270.74 313q2.205 0 2.28-.03c.3-.13.54-.37.66-.67l6.37-15.65c.1-.25.48-.18.48.09v15.8c0 .26.21.47.47.47h4.94c.24 0 .43-.19.43-.43v-24.6c0-.33-.26-.59-.59-.59l-7.13.03c-.37 0-.69.26-.77.62-.09.38-2.36 6.16-6.8 17.34-.07.18-.18.26-.33.26-.16 0-.27-.09-.34-.26-4.41-11.19-6.66-16.98-6.75-17.36a.79.79 0 0 0-.77-.62l-7.13-.04c-.33 0-.59.26-.59.58l-.06 24.6c0 .24.19.43.43.44l4.94.01c.26 0 .47-.21.47-.47l.04-15.8c0-.28.37-.34.48-.09l6.33 15.66c.12.3.36.55.66.67.05.03.81.04 2.28.04m-78.97-23.27c-.57.15-.96.67-.96 1.25v3.52c0 .28-.23.5-.5.5h-2.32c-.38 0-.69.31-.69.7v2.83c0 .45.36.81.8.81h2.17c.34-.01.61.29.58.63-.18 1.73-.12 4.47.18 8.23.51 6.52 8.51 6.23 12.65 3.54.62-.4.91-1.16.72-1.88l-.51-1.92c-.19-.69-1.05-.92-1.55-.42-1.15 1.16-2.7 1.48-4.66.95-.69-.19-1.16-.81-1.16-1.53l-.01-6.87c0-.38.31-.68.68-.68h5.84c.42 0 .75-.33.75-.74v-3.14c0-.3-.25-.55-.56-.55h-6.1c-.34 0-.61-.27-.61-.6v-4.86c0-.52-.49-.9-.99-.76l-3.75.99" vector-effect="non-scaling-stroke"/><path stroke="#7f8da6" d="m152.26 305.35 11.99-.01c.52 0 .93-.43.92-.95-.22-7.01-3.92-10.26-11.1-9.76-9.22.64-11.69 12.38-4.37 17.27 4.06 2.71 10.74 2.16 14.76-.87.85-.65.89-1.93.06-2.62l-.26-.22a2.81 2.81 0 0 0-3.46-.12c-2.51 1.81-8.32 2.12-9.12-2.03-.07-.35.21-.69.58-.69m21.1 7.23v-9.66c0-1.62 1.09-3.04 2.66-3.46l.65-.17c1.78-.47 3.52.87 3.52 2.71v10.41c0 .33.26.59.59.59h4.62c.28 0 .51-.23.51-.51.05-6.28-.01-10.52-.2-12.72-.58-6.81-8.87-6.71-11.97-2.26-.2.29-.64.21-.73-.12l-.52-1.96a.56.56 0 0 0-.54-.41h-3.83a.49.49 0 0 0-.49.49v17.01c0 .27.22.49.49.49h4.8c.24 0 .44-.19.44-.43m37.88-15.66v-1.18c0-.4-.32-.72-.72-.72h-3.7a.49.49 0 0 0-.49.49v16.89c0 .33.26.59.58.59h4.62c.33 0 .59-.27.57-.6-.15-2.36-1.29-13.1 2.58-13.7 1.59-.24 2.56.57 2.9 2.43.11.57.68.93 1.24.78l3-.8c.64-.17 1.01-.83.81-1.46-1.45-4.67-4.19-6.2-8.24-4.59-1.26.51-1.74 1.53-2.56 2.16-.24.18-.59.01-.59-.29m33.204 6.19a8.573 8.573 0 0 0-8.63-8.51l-3.18.021c-4.734.029-8.544 3.899-8.51 8.63l.012 1.64c.034 4.729 3.894 8.539 8.63 8.51l3.18-.022c4.734-.029 8.544-3.899 8.51-8.63l-.012-1.64m51.336 2.251h11.99c.52 0 .94-.43.92-.95-.21-7.01-3.9-10.26-11.08-9.77-9.22.63-11.71 12.36-4.4 17.26 4.06 2.72 10.74 2.18 14.76-.85.86-.65.89-1.93.07-2.62l-.26-.22a2.81 2.81 0 0 0-3.46-.12c-2.51 1.8-8.32 2.11-9.12-2.04-.07-.36.21-.69.58-.69m64.23-4.59c-.11-1.2-.62-2.3-1.55-3.31-6-6.53-17.94-2.26-16.88 7.52.66 6.13 5.08 8.86 10.91 8.5 3.89-.23 8.23-2.77 8.56-6.95.05-.65-.47-1.21-1.12-1.21h-3.43a.68.68 0 0 0-.58.33l-1.46 2.4c-.18.29-.46.49-.79.57-7.82 1.91-7.85-8.48-3.42-9.3 2.73-.51 3.39.77 4.82 2.59.27.35.72.5 1.14.38l3.35-.89c.28-.08.47-.34.45-.63m23.215 2.511c.035-4.741-3.785-8.621-8.53-8.65l-3.2-.022a8.59 8.59 0 0 0-8.65 8.53l-.01 1.58c-.035 4.741 3.785 8.621 8.53 8.65l3.2.022a8.59 8.59 0 0 0 8.65-8.53l.01-1.58m-43.76-7.906a.374.374 0 0 0-.38-.38l-5-.01a.39.39 0 0 0-.38.38l-.03 17.28a.374.374 0 0 0 .38.38l5 .01a.39.39 0 0 0 .38-.38l.03-17.28M259 336.43c0-.23-.18-.41-.41-.41h-4.82c-.23 0-.41.18-.41.41v26.18c0 .23.18.41.41.41h4.82c.23 0 .41-.18.41-.41v-26.18m65.44 3.14c.67.97 1.12 1.57 1.33 1.79.21.23.47.42.75.55 3.45 1.61 4.9-2.71 4.94-5.28a.544.544 0 0 0-.55-.56h-.36c-.27 0-.51.19-.57.45l-.75 3.17c-.27 1.14-1.75 1.46-2.46.53-.04-.06-.4-.57-1.07-1.53-.67-.97-1.12-1.57-1.32-1.8-.22-.22-.47-.41-.76-.54-3.45-1.61-4.9 2.71-4.94 5.28 0 .31.24.56.55.56h.36c.27 0 .51-.19.57-.45l.75-3.17c.27-1.15 1.75-1.46 2.46-.53.04.06.4.57 1.07 1.53m-181.03-1.88-.04 24.74c0 .29.23.52.52.52l11.54.02c6.88.01 12.47-5.39 12.48-12.06v-1.62c.01-6.67-5.56-12.09-12.44-12.1l-11.54-.02c-.28 0-.52.23-.52.52m133.9 16.93c3.96-.2 8.89.79 12.29-2.18 4.01-3.5 3.85-8.99.23-12.72-1.91-1.96-5.7-2.35-8.34-2.33-4.43.03-8.01.01-10.76-.08-.2-.01-.37.15-.37.35v24.69c0 .37.3.67.67.67h5.11c.32 0 .58-.26.58-.58v-7.2c0-.33.26-.6.59-.62m-61.29-14.84c-.57.15-.96.67-.96 1.25v3.51c0 .28-.22.5-.5.5h-2.31c-.38 0-.69.31-.69.69v2.83c0 .44.36.8.8.8h2.16c.34 0 .61.29.58.63-.18 1.73-.12 4.46.18 8.21.51 6.5 8.48 6.22 12.61 3.53.62-.4.91-1.15.72-1.87l-.51-1.92a.915.915 0 0 0-1.54-.41c-1.15 1.15-2.7 1.47-4.65.94-.69-.19-1.16-.81-1.16-1.52v-6.86c0-.37.3-.67.67-.67h5.83c.41 0 .75-.33.75-.74v-3.13c0-.3-.25-.55-.56-.55h-6.09c-.33 0-.6-.27-.6-.6v-4.85c0-.52-.49-.9-.99-.76l-3.74.99m-39.49 15.56 11.99.04c.52 0 .94-.43.92-.95-.19-7.01-3.87-10.27-11.05-9.8-9.22.61-11.74 12.33-4.45 17.25 4.06 2.73 10.74 2.21 14.76-.81.87-.65.9-1.93.08-2.62l-.26-.22a2.81 2.81 0 0 0-3.46-.13c-2.51 1.79-8.32 2.08-9.11-2.07-.07-.36.21-.69.58-.69m21.08 7.23-.02-9.66c0-1.62 1.09-3.04 2.66-3.46l.65-.17c1.77-.48 3.52.86 3.52 2.7l.02 10.41c0 .33.26.59.59.59l4.62-.01c.28 0 .51-.22.51-.51.04-6.28-.03-10.52-.22-12.72-.59-6.81-8.88-6.69-11.98-2.24-.19.29-.64.22-.73-.12l-.52-1.96a.57.57 0 0 0-.54-.41l-3.83.01a.49.49 0 0 0-.49.49l.03 17.01c0 .27.22.49.49.49l4.8-.01c.24 0 .44-.19.44-.43" vector-effect="non-scaling-stroke"/><path stroke="#7f8da6" d="m243.35 361.22.7 1.21c.21.37.57.64.98.75 2.32.58 4.35.36 6.1-.66 1.54-.9.76-3.28-.99-3.02q-.555.075-1.17-.21a.84.84 0 0 1-.47-.74c.07-6.18 1.01-11.96-5.44-13.63-4.88-1.26-11.05-.27-12.81 5.26-.2.61.26 1.24.91 1.25h4.24c.16.01.31-.07.42-.19l1.58-1.96c.12-.15.28-.27.47-.32 1.96-.63 3.54-.27 4.72 1.05.72.8.21 2.08-.87 2.16-3.15.24-5.93.79-8.33 1.66-5.59 2-4.42 8.97 1.2 9.65 3.9.46 5.17-.64 7.85-2.47.31-.21.73-.11.91.21m57.42-5.88 11.99.05c.52 0 .93-.43.92-.95-.18-7-3.86-10.27-11.04-9.8-9.21.6-11.74 12.31-4.46 17.23 4.05 2.73 10.73 2.22 14.76-.8.86-.64.9-1.92.07-2.61l-.25-.22a2.81 2.81 0 0 0-3.46-.14c-2.52 1.79-8.32 2.08-9.11-2.07-.06-.36.22-.69.58-.69m20.77 7.25.04-9.68c.01-1.62 1.1-3.04 2.68-3.45l.65-.17c1.78-.47 3.52.88 3.51 2.73l-.04 10.42c0 .33.27.6.59.6l4.63.01c.28.01.51-.22.51-.5.08-6.3.03-10.54-.15-12.75-.55-6.82-8.86-6.75-11.98-2.31-.2.29-.64.21-.73-.12l-.51-1.96a.564.564 0 0 0-.54-.42l-3.84-.01a.49.49 0 0 0-.49.49l-.07 17.04c0 .27.22.49.49.49l4.81.02c.24 0 .44-.19.44-.43m28.07-1.36.7 1.21c.22.37.57.64.99.75 2.33.58 4.36.36 6.11-.67 1.55-.91.76-3.29-1-3.03q-.555.075-1.17-.21a.8.8 0 0 1-.47-.74c.05-6.19.98-11.98-5.48-13.64-4.9-1.26-11.08-.25-12.83 5.29-.2.62.26 1.25.91 1.25h4.25c.16 0 .32-.07.42-.2l1.58-1.96c.12-.16.29-.27.47-.33q2.955-.945 4.74 1.05c.72.8.21 2.08-.87 2.16-3.16.25-5.94.81-8.35 1.68-5.59 2.02-4.41 9 1.23 9.67 3.91.46 5.18-.65 7.86-2.49.31-.21.73-.11.91.21" vector-effect="non-scaling-stroke"/><path stroke="#4162a5" d="M216.564 256.04c-.134 4.66 3.946 8.56 9.1 8.707 5.156.143 9.446-3.517 9.572-8.186.134-4.661-3.946-8.561-9.1-8.708-5.156-.143-9.446 3.517-9.572 8.186" vector-effect="non-scaling-stroke"/><path stroke="#7f8da6" d="M320.617 299.04c-2.517.05-4.517 2.27-4.466 4.957.049 2.693 2.139 4.833 4.652 4.782 2.517-.049 4.517-2.269 4.466-4.957-.049-2.692-2.139-4.832-4.653-4.781M151.8 301.92l7.4.06c.08 0 .15-.07.15-.15v-.09c.01-1.68-1.65-3.05-3.72-3.07h-.22c-2.06-.02-3.75 1.33-3.76 3.01v.09c0 .09.07.15.15.15m87.3 2.03c0-2.67-2.16-4.83-4.83-4.83s-4.83 2.16-4.83 4.83 2.16 4.83 4.83 4.83 4.83-2.16 4.83-4.83m55.98-2.03 7.68.04c.06 0 .1-.04.1-.1v-.04c.01-1.71-1.69-3.11-3.8-3.12h-.24c-2.11-.01-3.83 1.37-3.84 3.08v.04c0 .05.05.1.1.1m82.509 1.322a4.016 4.016 0 0 0-4.017-4.003l-1.12.002a4.003 4.003 0 0 0-4.003 4.017l.002 1.4a4.016 4.016 0 0 0 4.017 4.003l1.12-.002a4.003 4.003 0 0 0 4.003-4.017l-.002-1.4M149.52 342.56l.08 14.92c0 .27.22.48.48.48l4.32-.02c3.96-.02 7.15-3.12 7.13-6.91l-.02-2.14c-.02-3.8-3.24-6.85-7.19-6.83l-4.32.02a.48.48 0 0 0-.48.48m127.14.18.04 6.5c0 .36.29.65.65.65l4.75-.02c2.21-.02 3.99-1.56 3.98-3.44v-.96c-.01-1.89-1.81-3.42-4.02-3.4l-4.75.02c-.36 0-.65.3-.65.65m-100.68 9.24 7.48-.02c.08 0 .14-.06.14-.14v-.08c0-1.7-1.7-3.07-3.79-3.07h-.18c-2.1 0-3.79 1.39-3.79 3.09v.08c0 .07.07.14.14.14m65.68 2.99-5.82 1.29c-.41.09-.67.5-.58.91l.03.1c.36 1.63 2.06 2.63 3.8 2.24l1-.22c1.74-.38 2.86-2.01 2.5-3.63l-.02-.11a.765.765 0 0 0-.91-.58m58.39-2.97 7.66-.04c.06 0 .11-.05.11-.11v-.04c-.01-1.73-1.69-3.12-3.76-3.11h-.4c-2.06.01-3.73 1.42-3.72 3.15v.04c0 .06.05.11.11.11m47.73 3.14c-2.03.07-3.78.43-5.23 1.08-1.1.5-1.19 2.02-.16 2.65 2.21 1.35 4.35.85 6.43-1.52.77-.88.12-2.25-1.04-2.21" vector-effect="non-scaling-stroke"/></g><path fill="#001a4d" d="M500 0v500H0V0zM211.14 243.92c-1.42-4.52-2.56-8.58-3.87-11.97-5.93-15.31-13.2-32.66-13.97-49.41-.81-17.74 9.05-28.94 24.58-35.9 8.35-3.75 15-2.52 23.16 1.94q2.175 1.185 10.59 5.34c.68.34 1.49.31 2.14-.08 2.49-1.47 6.12-3.18 10.91-5.13 18.7-7.63 35.73-3.06 45.79 14.77 5.51 9.75 6.75 20.1 3.7 31.05q-2.01 7.215-4.08 13.08c-.45 1.29-5.17 14.91-14.15 40.84-.51 1.45-1.89 4.73-4.14 9.85q-2.715 6.195-8.22 6.6c-6.51.46-10.58-3.56-12.43-9.3-2.09-6.51-3.72-13.15-4.91-19.94-.07-.4.07-.81.37-1.08 4.7-4.33 9.22-8.76 10.88-14.83.5-1.82 1.02-5.5 1.55-11.03.62-6.41.83-11.98.63-16.69-.22-5.12-1.29-11.5-5.15-15.19-3.6-3.44-10.67-2.12-14.52.17-.82.49-1.35 1.06-1.6 1.72-.46 1.19.25 2.54 1.55 2.95 3.29 1.05 5.97 1.96 8.04 2.71 1.17.42 1.84 1.47 2.03 3.14q1.11 9.99 1.05 15.96c-.1 8.64-3.61 14.55-8.24 21.63-.58.89-1.61 1.38-2.67 1.26-9.47-1.06-16.91-5.19-22.32-12.4-4.19-5.58-6.02-12.35-7.21-19.25-.13-.75.23-1.5.89-1.89l6.67-3.85c.42-.25.68-.7.66-1.19-.04-1.3-.26-2.33-.67-3.09-.24-.45-.62-.8-1.09-.99-4.32-1.76-10.14-1.26-13.08 2.87-3.33 4.7-2.86 11.34-.74 16.42 2.83 6.79 6.11 13.74 9.82 20.85 4.8 9.18 14.38 10.73 23.5 13.12.32.08.56.33.63.65 2.13 9.52 4.01 19.53 9.08 28.37 4.88 8.52 17.23 9.82 25.16 5.68 4.15-2.16 6.59-6.58 8.7-10.79 8.64-17.23 12.58-34.96 20-56.41 3.82-11.05 5.86-23.2 3.19-34.35-2.65-11.04-11.09-20.94-20.17-27.33q-14.445-10.155-31.89-5.22c-2.4.68-6.63 2.1-12.7 4.27-6.11 2.18-8.83-.2-14.01-2.76-6.64-3.26-15.06-3.89-22.06-2.78-19.43 3.09-34.14 19.46-37.77 38.3-1.47 7.66-1.03 14.24 1.04 21.61 5.18 18.43 11.62 37.17 19.33 56.21 2.41 5.95 4.19 9.91 5.32 11.88 1.88 3.27 4.13 5.61 6.76 7.04 5.23 2.84 10.74 3.95 16.62 1.45 8.13-3.46 10.98-11.6 9.5-19.8-1.35-7.51-5.7-12.01-13.05-13.52-6.44-1.33-12.23 1.73-18.02 4.88-.43.23-.96.02-1.11-.44m128.77 44.77a3.35 3.35 0 1 0-6.7 0 3.35 3.35 0 0 0 6.7 0m-201.92 13.74c-1.49 6.84-10.47 7.57-13.69 1.84-1.06-1.89-1.13-6.03-.5-7.97 2.05-6.33 10.59-6.91 12.42.02.12.46.59.73 1.05.61l4.11-1.09c.44-.12.71-.56.62-1-1.4-6.76-6.9-9.15-13.41-8.73-17.8 1.15-14.82 31.94 5.99 26.94 5.42-1.3 8.64-4.7 9.65-10.21a.92.92 0 0 0-.91-1.08h-4.51c-.4 0-.74.28-.82.67m165.246-15a.763.763 0 0 0-.11-1.068l-.047-.038a.76.76 0 0 0-1.069.11l-3.506 4.315a.764.764 0 0 0 .11 1.07l.047.037a.76.76 0 0 0 1.069-.11zm21.864-1.12v11.01c0 .29-.36.42-.54.19-2.42-3.11-5.54-3.85-9.36-2.21-4.78 2.04-5.43 8.45-4 12.76 1.15 3.49 3.59 5.31 7.3 5.46 2.63.11 4.66-.88 6.08-2.97.3-.44.98-.22.98.31v1.39c0 .4.33.73.74.73h3.94c.28 0 .5-.22.5-.5v-26.19c0-.15-.12-.27-.26-.27h-5.08c-.17 0-.3.13-.3.29M270.74 313q2.205 0 2.28-.03c.3-.13.54-.37.66-.67l6.37-15.65c.1-.25.48-.18.48.09v15.8c0 .26.21.47.47.47h4.94c.24 0 .43-.19.43-.43v-24.6c0-.33-.26-.59-.59-.59l-7.13.03c-.37 0-.69.26-.77.62-.09.38-2.36 6.16-6.8 17.34-.07.18-.18.26-.33.26-.16 0-.27-.09-.34-.26-4.41-11.19-6.66-16.98-6.75-17.36a.79.79 0 0 0-.77-.62l-7.13-.04c-.33 0-.59.26-.59.58l-.06 24.6c0 .24.19.43.43.44l4.94.01c.26 0 .47-.21.47-.47l.04-15.8c0-.28.37-.34.48-.09l6.33 15.66c.12.3.36.55.66.67.05.03.81.04 2.28.04m-78.97-23.27c-.57.15-.96.67-.96 1.25v3.52c0 .28-.23.5-.5.5h-2.32c-.38 0-.69.31-.69.7v2.83c0 .45.36.81.8.81h2.17c.34-.01.61.29.58.63-.18 1.73-.12 4.47.18 8.23.51 6.52 8.51 6.23 12.65 3.54.62-.4.91-1.16.72-1.88l-.51-1.92c-.19-.69-1.05-.92-1.55-.42-1.15 1.16-2.7 1.48-4.66.95-.69-.19-1.16-.81-1.16-1.53l-.01-6.87c0-.38.31-.68.68-.68h5.84c.42 0 .75-.33.75-.74v-3.14c0-.3-.25-.55-.56-.55h-6.1c-.34 0-.61-.27-.61-.6v-4.86c0-.52-.49-.9-.99-.76zm-39.51 15.62 11.99-.01c.52 0 .93-.43.92-.95-.22-7.01-3.92-10.26-11.1-9.76-9.22.64-11.69 12.38-4.37 17.27 4.06 2.71 10.74 2.16 14.76-.87.85-.65.89-1.93.06-2.62l-.26-.22a2.81 2.81 0 0 0-3.46-.12c-2.51 1.81-8.32 2.12-9.12-2.03-.07-.35.21-.69.58-.69m21.1 7.23v-9.66c0-1.62 1.09-3.04 2.66-3.46l.65-.17c1.78-.47 3.52.87 3.52 2.71v10.41c0 .33.26.59.59.59h4.62c.28 0 .51-.23.51-.51.05-6.28-.01-10.52-.2-12.72-.58-6.81-8.87-6.71-11.97-2.26-.2.29-.64.21-.73-.12l-.52-1.96a.56.56 0 0 0-.54-.41h-3.83a.49.49 0 0 0-.49.49v17.01c0 .27.22.49.49.49h4.8c.24 0 .44-.19.44-.43m37.88-15.66v-1.18c0-.4-.32-.72-.72-.72h-3.7a.49.49 0 0 0-.49.49v16.89c0 .33.26.59.58.59h4.62c.33 0 .59-.27.57-.6-.15-2.36-1.29-13.1 2.58-13.7 1.59-.24 2.56.57 2.9 2.43.11.57.68.93 1.24.78l3-.8c.64-.17 1.01-.83.81-1.46-1.45-4.67-4.19-6.2-8.24-4.59-1.26.51-1.74 1.53-2.56 2.16-.24.18-.59.01-.59-.29m33.204 6.19a8.573 8.573 0 0 0-8.63-8.51l-3.18.021c-4.734.029-8.544 3.899-8.51 8.63l.012 1.64c.034 4.729 3.894 8.539 8.63 8.51l3.18-.022c4.734-.029 8.544-3.899 8.51-8.63zm51.336 2.25h11.99c.52 0 .94-.43.92-.95-.21-7.01-3.9-10.26-11.08-9.77-9.22.63-11.71 12.36-4.4 17.26 4.06 2.72 10.74 2.18 14.76-.85.86-.65.89-1.93.07-2.62l-.26-.22a2.81 2.81 0 0 0-3.46-.12c-2.51 1.8-8.32 2.11-9.12-2.04-.07-.36.21-.69.58-.69m64.23-4.59c-.11-1.2-.62-2.3-1.55-3.31-6-6.53-17.94-2.26-16.88 7.52.66 6.13 5.08 8.86 10.91 8.5 3.89-.23 8.23-2.77 8.56-6.95.05-.65-.47-1.21-1.12-1.21h-3.43a.68.68 0 0 0-.58.33l-1.46 2.4c-.18.29-.46.49-.79.57-7.82 1.91-7.85-8.48-3.42-9.3 2.73-.51 3.39.77 4.82 2.59.27.35.72.5 1.14.38l3.35-.89c.28-.08.47-.34.45-.63m23.215 2.511c.035-4.741-3.785-8.621-8.53-8.65l-3.2-.022a8.59 8.59 0 0 0-8.65 8.53l-.01 1.58c-.035 4.741 3.785 8.621 8.53 8.65l3.2.022a8.59 8.59 0 0 0 8.65-8.53zm-43.76-7.906a.374.374 0 0 0-.38-.38l-5-.01a.39.39 0 0 0-.38.38l-.03 17.28a.374.374 0 0 0 .38.38l5 .01a.39.39 0 0 0 .38-.38zM259 336.43c0-.23-.18-.41-.41-.41h-4.82c-.23 0-.41.18-.41.41v26.18c0 .23.18.41.41.41h4.82c.23 0 .41-.18.41-.41zm65.44 3.14c.67.97 1.12 1.57 1.33 1.79.21.23.47.42.75.55 3.45 1.61 4.9-2.71 4.94-5.28a.544.544 0 0 0-.55-.56h-.36c-.27 0-.51.19-.57.45l-.75 3.17c-.27 1.14-1.75 1.46-2.46.53-.04-.06-.4-.57-1.07-1.53-.67-.97-1.12-1.57-1.32-1.8-.22-.22-.47-.41-.76-.54-3.45-1.61-4.9 2.71-4.94 5.28 0 .31.24.56.55.56h.36c.27 0 .51-.19.57-.45l.75-3.17c.27-1.15 1.75-1.46 2.46-.53.04.06.4.57 1.07 1.53m-181.03-1.88-.04 24.74c0 .29.23.52.52.52l11.54.02c6.88.01 12.47-5.39 12.48-12.06v-1.62c.01-6.67-5.56-12.09-12.44-12.1l-11.54-.02c-.28 0-.52.23-.52.52m133.9 16.93c3.96-.2 8.89.79 12.29-2.18 4.01-3.5 3.85-8.99.23-12.72-1.91-1.96-5.7-2.35-8.34-2.33-4.43.03-8.01.01-10.76-.08-.2-.01-.37.15-.37.35v24.69c0 .37.3.67.67.67h5.11c.32 0 .58-.26.58-.58v-7.2c0-.33.26-.6.59-.62m-61.29-14.84c-.57.15-.96.67-.96 1.25v3.51c0 .28-.22.5-.5.5h-2.31c-.38 0-.69.31-.69.69v2.83c0 .44.36.8.8.8h2.16c.34 0 .61.29.58.63-.18 1.73-.12 4.46.18 8.21.51 6.5 8.48 6.22 12.61 3.53.62-.4.91-1.15.72-1.87l-.51-1.92a.915.915 0 0 0-1.54-.41c-1.15 1.15-2.7 1.47-4.65.94-.69-.19-1.16-.81-1.16-1.52v-6.86c0-.37.3-.67.67-.67h5.83c.41 0 .75-.33.75-.74v-3.13c0-.3-.25-.55-.56-.55h-6.09c-.33 0-.6-.27-.6-.6v-4.85c0-.52-.49-.9-.99-.76zm-39.49 15.56 11.99.04c.52 0 .94-.43.92-.95-.19-7.01-3.87-10.27-11.05-9.8-9.22.61-11.74 12.33-4.45 17.25 4.06 2.73 10.74 2.21 14.76-.81.87-.65.9-1.93.08-2.62l-.26-.22a2.81 2.81 0 0 0-3.46-.13c-2.51 1.79-8.32 2.08-9.11-2.07-.07-.36.21-.69.58-.69m21.08 7.23-.02-9.66c0-1.62 1.09-3.04 2.66-3.46l.65-.17c1.77-.48 3.52.86 3.52 2.7l.02 10.41c0 .33.26.59.59.59l4.62-.01c.28 0 .51-.22.51-.51.04-6.28-.03-10.52-.22-12.72-.59-6.81-8.88-6.69-11.98-2.24-.19.29-.64.22-.73-.12l-.52-1.96a.57.57 0 0 0-.54-.41l-3.83.01a.49.49 0 0 0-.49.49l.03 17.01c0 .27.22.49.49.49l4.8-.01c.24 0 .44-.19.44-.43m45.74-1.35.7 1.21c.21.37.57.64.98.75 2.32.58 4.35.36 6.1-.66 1.54-.9.76-3.28-.99-3.02q-.555.075-1.17-.21a.84.84 0 0 1-.47-.74c.07-6.18 1.01-11.96-5.44-13.63-4.88-1.26-11.05-.27-12.81 5.26-.2.61.26 1.24.91 1.25h4.24c.16.01.31-.07.42-.19l1.58-1.96c.12-.15.28-.27.47-.32 1.96-.63 3.54-.27 4.72 1.05.72.8.21 2.08-.87 2.16-3.15.24-5.93.79-8.33 1.66-5.59 2-4.42 8.97 1.2 9.65 3.9.46 5.17-.64 7.85-2.47.31-.21.73-.11.91.21m57.42-5.88 11.99.05c.52 0 .93-.43.92-.95-.18-7-3.86-10.27-11.04-9.8-9.21.6-11.74 12.31-4.46 17.23 4.05 2.73 10.73 2.22 14.76-.8.86-.64.9-1.92.07-2.61l-.25-.22a2.81 2.81 0 0 0-3.46-.14c-2.52 1.79-8.32 2.08-9.11-2.07-.06-.36.22-.69.58-.69m20.77 7.25.04-9.68c.01-1.62 1.1-3.04 2.68-3.45l.65-.17c1.78-.47 3.52.88 3.51 2.73l-.04 10.42c0 .33.27.6.59.6l4.63.01c.28.01.51-.22.51-.5.08-6.3.03-10.54-.15-12.75-.55-6.82-8.86-6.75-11.98-2.31-.2.29-.64.21-.73-.12l-.51-1.96a.564.564 0 0 0-.54-.42l-3.84-.01a.49.49 0 0 0-.49.49l-.07 17.04c0 .27.22.49.49.49l4.81.02c.24 0 .44-.19.44-.43m28.07-1.36.7 1.21c.22.37.57.64.99.75 2.33.58 4.36.36 6.11-.67 1.55-.91.76-3.29-1-3.03q-.555.075-1.17-.21a.8.8 0 0 1-.47-.74c.05-6.19.98-11.98-5.48-13.64-4.9-1.26-11.08-.25-12.83 5.29-.2.62.26 1.25.91 1.25h4.25c.16 0 .32-.07.42-.2l1.58-1.96c.12-.16.29-.27.47-.33q2.955-.945 4.74 1.05c.72.8.21 2.08-.87 2.16-3.16.25-5.94.81-8.35 1.68-5.59 2.02-4.41 9 1.23 9.67 3.91.46 5.18-.65 7.86-2.49.31-.21.73-.11.91.21"/><path fill="#81aafc" d="M211.14 243.92c.15.46.68.67 1.11.44 5.79-3.15 11.58-6.21 18.02-4.88 7.35 1.51 11.7 6.01 13.05 13.52 1.48 8.2-1.37 16.34-9.5 19.8-5.88 2.5-11.39 1.39-16.62-1.45-2.63-1.43-4.88-3.77-6.76-7.04-1.13-1.97-2.91-5.93-5.32-11.88-7.71-19.04-14.15-37.78-19.33-56.21-2.07-7.37-2.51-13.95-1.04-21.61 3.63-18.84 18.34-35.21 37.77-38.3 7-1.11 15.42-.48 22.06 2.78 5.18 2.56 7.9 4.94 14.01 2.76 6.07-2.17 10.3-3.59 12.7-4.27q17.445-4.935 31.89 5.22c9.08 6.39 17.52 16.29 20.17 27.33 2.67 11.15.63 23.3-3.19 34.35-7.42 21.45-11.36 39.18-20 56.41-2.11 4.21-4.55 8.63-8.7 10.79-7.93 4.14-20.28 2.84-25.16-5.68-5.07-8.84-6.95-18.85-9.08-28.37a.85.85 0 0 0-.63-.65c-9.12-2.39-18.7-3.94-23.5-13.12-3.71-7.11-6.99-14.06-9.82-20.85-2.12-5.08-2.59-11.72.74-16.42 2.94-4.13 8.76-4.63 13.08-2.87.47.19.85.54 1.09.99.41.76.63 1.79.67 3.09.02.49-.24.94-.66 1.19l-6.67 3.85c-.66.39-1.02 1.14-.89 1.89 1.19 6.9 3.02 13.67 7.21 19.25 5.41 7.21 12.85 11.34 22.32 12.4 1.06.12 2.09-.37 2.67-1.26 4.63-7.08 8.14-12.99 8.24-21.63q.06-5.97-1.05-15.96c-.19-1.67-.86-2.72-2.03-3.14-2.07-.75-4.75-1.66-8.04-2.71-1.3-.41-2.01-1.76-1.55-2.95.25-.66.78-1.23 1.6-1.72 3.85-2.29 10.92-3.61 14.52-.17 3.86 3.69 4.93 10.07 5.15 15.19.2 4.71-.01 10.28-.63 16.69-.53 5.53-1.05 9.21-1.55 11.03-1.66 6.07-6.18 10.5-10.88 14.83-.3.27-.44.68-.37 1.08 1.19 6.79 2.82 13.43 4.91 19.94 1.85 5.74 5.92 9.76 12.43 9.3q5.505-.405 8.22-6.6c2.25-5.12 3.63-8.4 4.14-9.85 8.98-25.93 13.7-39.55 14.15-40.84q2.07-5.865 4.08-13.08c3.05-10.95 1.81-21.3-3.7-31.05-10.06-17.83-27.09-22.4-45.79-14.77-4.79 1.95-8.42 3.66-10.91 5.13-.65.39-1.46.42-2.14.08q-8.415-4.155-10.59-5.34c-8.16-4.46-14.81-5.69-23.16-1.94-15.53 6.96-25.39 18.16-24.58 35.9.77 16.75 8.04 34.1 13.97 49.41 1.31 3.39 2.45 7.45 3.87 11.97m5.424 12.12c-.134 4.66 3.946 8.56 9.1 8.707 5.156.143 9.446-3.517 9.572-8.186.134-4.661-3.946-8.561-9.1-8.708-5.156-.143-9.446 3.517-9.572 8.186"/><ellipse fill="#001a4d" rx="9.34" ry="8.45" transform="rotate(181.6 114.74 126.573)"/><circle cx="336.56" cy="288.69" r="3.35" fill="#feffff"/><path fill="#feffff" d="M137.99 302.43c.08-.39.42-.67.82-.67h4.51c.58 0 1.01.52.91 1.08-1.01 5.51-4.23 8.91-9.65 10.21-20.81 5-23.79-25.79-5.99-26.94 6.51-.42 12.01 1.97 13.41 8.73.09.44-.18.88-.62 1l-4.11 1.09a.857.857 0 0 1-1.05-.61c-1.83-6.93-10.37-6.35-12.42-.02-.63 1.94-.56 6.08.5 7.97 3.22 5.73 12.2 5 13.69-1.84"/><rect width="1.58" height="7.08" x="-.79" y="-3.54" fill="#feffff" rx=".76" transform="rotate(39.1 -256.618 568.185)"/><path fill="#feffff" d="M325.1 286.31c0-.16.13-.29.3-.29h5.08c.14 0 .26.12.26.27v26.19c0 .28-.22.5-.5.5h-3.94c-.41 0-.74-.33-.74-.73v-1.39c0-.53-.68-.75-.98-.31-1.42 2.09-3.45 3.08-6.08 2.97-3.71-.15-6.15-1.97-7.3-5.46-1.43-4.31-.78-10.72 4-12.76 3.82-1.64 6.94-.9 9.36 2.21.18.23.54.1.54-.19zm-4.484 12.73c-2.516.05-4.516 2.27-4.465 4.957.049 2.693 2.139 4.833 4.652 4.782 2.517-.049 4.517-2.269 4.466-4.957-.049-2.692-2.139-4.832-4.653-4.781m-49.866 6.599c.15 0 .26-.08.33-.26 4.44-11.18 6.71-16.96 6.8-17.34.08-.36.4-.62.77-.62l7.13-.03c.33 0 .59.26.59.59v24.6c0 .24-.19.43-.43.43H281a.47.47 0 0 1-.47-.47v-15.8c0-.27-.38-.34-.48-.09l-6.37 15.65c-.12.3-.36.54-.66.67q-.075.03-2.28.03c-1.47 0-2.23-.01-2.28-.04-.3-.12-.54-.37-.66-.67l-6.33-15.66c-.11-.25-.48-.19-.48.09l-.04 15.8c0 .26-.21.47-.47.47l-4.94-.01a.44.44 0 0 1-.43-.44l.06-24.6c0-.32.26-.58.59-.58l7.13.04c.37 0 .69.26.77.62.09.38 2.34 6.17 6.75 17.36.07.17.18.26.34.26m-78.98-15.91 3.75-.99c.5-.14.99.24.99.76v4.86c0 .33.27.6.61.6h6.1c.31 0 .56.25.56.55v3.14c0 .41-.33.74-.75.74h-5.84c-.37 0-.68.3-.68.68l.01 6.87c0 .72.47 1.34 1.16 1.53 1.96.53 3.51.21 4.66-.95.5-.5 1.36-.27 1.55.42l.51 1.92c.19.72-.1 1.48-.72 1.88-4.14 2.69-12.14 2.98-12.65-3.54-.3-3.76-.36-6.5-.18-8.23a.575.575 0 0 0-.58-.63h-2.17c-.44 0-.8-.36-.8-.81v-2.83c0-.39.31-.7.69-.7h2.32c.27 0 .5-.22.5-.5v-3.52c0-.58.39-1.1.96-1.25m-39.51 15.62c-.37 0-.65.34-.58.69.8 4.15 6.61 3.84 9.12 2.03a2.81 2.81 0 0 1 3.46.12l.26.22c.83.69.79 1.97-.06 2.62-4.02 3.03-10.7 3.58-14.76.87-7.32-4.89-4.85-16.63 4.37-17.27 7.18-.5 10.88 2.75 11.1 9.76.01.52-.4.95-.92.95zm-.46-3.43 7.4.06c.08 0 .15-.07.15-.15v-.09c.01-1.68-1.65-3.05-3.72-3.07h-.22c-2.06-.02-3.75 1.33-3.76 3.01v.09c0 .09.07.15.15.15m21.56 10.66c0 .24-.2.43-.44.43h-4.8a.49.49 0 0 1-.49-.49v-17.01c0-.27.22-.49.49-.49h3.83c.25 0 .48.17.54.41l.52 1.96c.09.33.53.41.73.12 3.1-4.45 11.39-4.55 11.97 2.26.19 2.2.25 6.44.2 12.72 0 .28-.23.51-.51.51h-4.62c-.33 0-.59-.26-.59-.59V302c0-1.84-1.74-3.18-3.52-2.71l-.65.17a3.58 3.58 0 0 0-2.66 3.46zm38.47-15.37c.82-.63 1.3-1.65 2.56-2.16 4.05-1.61 6.79-.08 8.24 4.59.2.63-.17 1.29-.81 1.46l-3 .8c-.56.15-1.13-.21-1.24-.78-.34-1.86-1.31-2.67-2.9-2.43-3.87.6-2.73 11.34-2.58 13.7.02.33-.24.6-.57.6h-4.62c-.32 0-.58-.26-.58-.59v-16.89c0-.27.22-.49.49-.49h3.7c.4 0 .72.32.72.72v1.18c0 .3.35.47.59.29m32.626 7.54c.034 4.73-3.776 8.6-8.51 8.629l-3.18.022c-4.736.029-8.596-3.781-8.63-8.51l-.011-1.64c-.035-4.731 3.775-8.601 8.51-8.63l3.18-.022c4.735-.029 8.595 3.781 8.629 8.51zm-5.356-.8c0-2.67-2.16-4.83-4.83-4.83s-4.83 2.16-4.83 4.83 2.16 4.83 4.83 4.83 4.83-2.16 4.83-4.83m56.1 2.1c.8 4.15 6.61 3.84 9.12 2.04a2.81 2.81 0 0 1 3.46.12l.26.22c.82.69.79 1.97-.07 2.62-4.02 3.03-10.7 3.57-14.76.85-7.31-4.9-4.82-16.63 4.4-17.26 7.18-.49 10.87 2.76 11.08 9.77.02.52-.4.95-.92.95h-11.99c-.37 0-.65.33-.58.69m-.12-4.13 7.68.04c.06 0 .1-.04.1-.1v-.04c.01-1.71-1.69-3.11-3.8-3.12h-.24c-2.11-.01-3.83 1.37-3.84 3.08v.04c0 .05.05.1.1.1m64.93-1.15c.02.29-.17.55-.45.63l-3.35.89c-.42.12-.87-.03-1.14-.38-1.43-1.82-2.09-3.1-4.82-2.59-4.43.82-4.4 11.21 3.42 9.3.33-.08.61-.28.79-.57l1.46-2.4c.12-.2.34-.33.58-.33h3.43c.65 0 1.17.56 1.12 1.21-.33 4.18-4.67 6.72-8.56 6.95-5.83.36-10.25-2.37-10.91-8.5-1.06-9.78 10.88-14.05 16.88-7.52.93 1.01 1.44 2.11 1.55 3.31m23.204 4.091a8.59 8.59 0 0 1-8.65 8.53l-3.2-.022c-4.744-.029-8.564-3.909-8.53-8.65l.012-1.58a8.59 8.59 0 0 1 8.65-8.53l3.2.022c4.744.029 8.564 3.909 8.53 8.65zm-5.625-1.619a4.016 4.016 0 0 0-4.017-4.003l-1.12.002a4.003 4.003 0 0 0-4.003 4.017l.002 1.4a4.016 4.016 0 0 0 4.017 4.003l1.12-.002a4.003 4.003 0 0 0 4.003-4.017z"/><rect width="5.76" height="18.04" x="-2.88" y="-9.02" fill="#feffff" rx=".38" transform="rotate(.1 -174016.57 192992.361)"/><path fill="#001a4d" d="M295.08 301.92c-.05 0-.1-.05-.1-.1v-.04c.01-1.71 1.73-3.09 3.84-3.08h.24c2.11.01 3.81 1.41 3.8 3.12v.04c0 .06-.04.1-.1.1zm-143.28 0c-.08 0-.15-.06-.15-.15v-.09c.01-1.68 1.7-3.03 3.76-3.01h.22c2.07.02 3.73 1.39 3.72 3.07v.09c0 .08-.07.15-.15.15z"/><ellipse fill="#001a4d" rx="4.87" ry="4.56" transform="rotate(-91.1 309.42 -5.35)"/><circle cx="234.27" cy="303.95" r="4.83" fill="#001a4d"/><rect width="9.14" height="9.42" x="-4.57" y="-4.71" fill="#001a4d" rx="4.01" transform="rotate(-.1 174336.988 -213572.687)"/><rect width="5.64" height="27" x="253.36" y="336.02" fill="#feffff" rx=".41"/><path fill="#feffff" d="M324.44 339.57c-.67-.96-1.03-1.47-1.07-1.53-.71-.93-2.19-.62-2.46.53l-.75 3.17c-.06.26-.3.45-.57.45h-.36a.55.55 0 0 1-.55-.56c.04-2.57 1.49-6.89 4.94-5.28.29.13.54.32.76.54.2.23.65.83 1.32 1.8.67.96 1.03 1.47 1.07 1.53.71.93 2.19.61 2.46-.53l.75-3.17c.06-.26.3-.45.57-.45h.36c.31 0 .56.25.55.56-.04 2.57-1.49 6.89-4.94 5.28-.28-.13-.54-.32-.75-.55-.21-.22-.66-.82-1.33-1.79m-181.03-1.88c0-.29.24-.52.52-.52l11.54.02c6.88.01 12.45 5.43 12.44 12.1v1.62c-.01 6.67-5.6 12.07-12.48 12.06l-11.54-.02c-.29 0-.52-.23-.52-.52zm6.11 4.87.08 14.92c0 .27.22.48.48.48l4.32-.02c3.96-.02 7.15-3.12 7.13-6.91l-.02-2.14c-.02-3.8-3.24-6.85-7.19-6.83l-4.32.02a.48.48 0 0 0-.48.48m127.2 12.68v7.2c0 .32-.26.58-.58.58h-5.11a.67.67 0 0 1-.67-.67v-24.69c0-.2.17-.36.37-.35 2.75.09 6.33.11 10.76.08 2.64-.02 6.43.37 8.34 2.33 3.62 3.73 3.78 9.22-.23 12.72-3.4 2.97-8.33 1.98-12.29 2.18-.33.02-.59.29-.59.62m-.06-12.5.04 6.5c0 .36.29.65.65.65l4.75-.02c2.21-.02 3.99-1.56 3.98-3.44v-.96c-.01-1.89-1.81-3.42-4.02-3.4l-4.75.02c-.36 0-.65.3-.65.65m-55.91-3.19v4.85c0 .33.27.6.6.6h6.09c.31 0 .56.25.56.55v3.13c0 .41-.34.74-.75.74h-5.83c-.37 0-.67.3-.67.67v6.86c0 .71.47 1.33 1.16 1.52 1.95.53 3.5.21 4.65-.94a.915.915 0 0 1 1.54.41l.51 1.92a1.7 1.7 0 0 1-.72 1.87c-4.13 2.69-12.1 2.97-12.61-3.53-.3-3.75-.36-6.48-.18-8.21a.58.58 0 0 0-.58-.63h-2.16c-.44 0-.8-.36-.8-.8v-2.83c0-.38.31-.69.69-.69h2.31c.28 0 .5-.22.5-.5v-3.51c0-.58.39-1.1.96-1.25l3.74-.99c.5-.14.99.24.99.76"/><path fill="#001a4d" d="M149.52 342.56c0-.26.21-.48.48-.48l4.32-.02c3.95-.02 7.17 3.03 7.19 6.83l.02 2.14c.02 3.79-3.17 6.89-7.13 6.91l-4.32.02a.48.48 0 0 1-.48-.48zm127.14.18c0-.35.29-.65.65-.65l4.75-.02c2.21-.02 4.01 1.51 4.02 3.4v.96c.01 1.88-1.77 3.42-3.98 3.44l-4.75.02c-.36 0-.65-.29-.65-.65z"/><path fill="#feffff" d="M176.53 355.34c-.37 0-.65.33-.58.69.79 4.15 6.6 3.86 9.11 2.07a2.81 2.81 0 0 1 3.46.13l.26.22c.82.69.79 1.97-.08 2.62-4.02 3.02-10.7 3.54-14.76.81-7.29-4.92-4.77-16.64 4.45-17.25 7.18-.47 10.86 2.79 11.05 9.8.02.52-.4.95-.92.95zm-.55-3.36 7.48-.02c.08 0 .14-.06.14-.14v-.08c0-1.7-1.7-3.07-3.79-3.07h-.18c-2.1 0-3.79 1.39-3.79 3.09v.08c0 .07.07.14.14.14m21.63 10.59c0 .24-.2.43-.44.43l-4.8.01a.49.49 0 0 1-.49-.49l-.03-17.01c0-.27.22-.49.49-.49l3.83-.01c.25 0 .47.17.54.41l.52 1.96c.09.34.54.41.73.12 3.1-4.45 11.39-4.57 11.98 2.24.19 2.2.26 6.44.22 12.72 0 .29-.23.51-.51.51l-4.62.01c-.33 0-.59-.26-.59-.59l-.02-10.41c0-1.84-1.75-3.18-3.52-2.7l-.65.17a3.58 3.58 0 0 0-2.66 3.46zm45.74-1.35a.635.635 0 0 0-.91-.21c-2.68 1.83-3.95 2.93-7.85 2.47-5.62-.68-6.79-7.65-1.2-9.65 2.4-.87 5.18-1.42 8.33-1.66 1.08-.08 1.59-1.36.87-2.16-1.18-1.32-2.76-1.68-4.72-1.05-.19.05-.35.17-.47.32l-1.58 1.96c-.11.12-.26.2-.42.19h-4.24c-.65-.01-1.11-.64-.91-1.25 1.76-5.53 7.93-6.52 12.81-5.26 6.45 1.67 5.51 7.45 5.44 13.63 0 .31.19.6.47.74q.615.285 1.17.21c1.75-.26 2.53 2.12.99 3.02-1.75 1.02-3.78 1.24-6.1.66a1.6 1.6 0 0 1-.98-.75zm-1.69-6.25-5.82 1.29c-.41.09-.67.5-.58.91l.03.1c.36 1.63 2.06 2.63 3.8 2.24l1-.22c1.74-.38 2.86-2.01 2.5-3.63l-.02-.11a.765.765 0 0 0-.91-.58m59.11.37c-.36 0-.64.33-.58.69.79 4.15 6.59 3.86 9.11 2.07a2.81 2.81 0 0 1 3.46.14l.25.22c.83.69.79 1.97-.07 2.61-4.03 3.02-10.71 3.53-14.76.8-7.28-4.92-4.75-16.63 4.46-17.23 7.18-.47 10.86 2.8 11.04 9.8.01.52-.4.95-.92.95zm-.72-3.34 7.66-.04c.06 0 .11-.05.11-.11v-.04c-.01-1.73-1.69-3.12-3.76-3.11h-.4c-2.06.01-3.73 1.42-3.72 3.15v.04c0 .06.05.11.11.11m21.49 10.59c0 .24-.2.43-.44.43l-4.81-.02a.49.49 0 0 1-.49-.49l.07-17.04c0-.27.22-.49.49-.49l3.84.01c.25 0 .47.17.54.42l.51 1.96c.09.33.53.41.73.12 3.12-4.44 11.43-4.51 11.98 2.31.18 2.21.23 6.45.15 12.75 0 .28-.23.51-.51.5l-4.63-.01a.6.6 0 0 1-.59-.6l.04-10.42c.01-1.85-1.73-3.2-3.51-2.73l-.65.17a3.58 3.58 0 0 0-2.68 3.45zm27.16-1.57c-2.68 1.84-3.95 2.95-7.86 2.49-5.64-.67-6.82-7.65-1.23-9.67 2.41-.87 5.19-1.43 8.35-1.68 1.08-.08 1.59-1.36.87-2.16q-1.785-1.995-4.74-1.05c-.18.06-.35.17-.47.33l-1.58 1.96c-.1.13-.26.2-.42.2h-4.25a.955.955 0 0 1-.91-1.25c1.75-5.54 7.93-6.55 12.83-5.29 6.46 1.66 5.53 7.45 5.48 13.64 0 .32.18.61.47.74q.615.285 1.17.21c1.76-.26 2.55 2.12 1 3.03-1.75 1.03-3.78 1.25-6.11.67a1.63 1.63 0 0 1-.99-.75l-.7-1.21a.635.635 0 0 0-.91-.21m-.92-5.88c-2.03.07-3.78.43-5.23 1.08-1.1.5-1.19 2.02-.16 2.65 2.21 1.35 4.35.85 6.43-1.52.77-.88.12-2.25-1.04-2.21"/><path fill="#001a4d" d="M300.05 352c-.06 0-.11-.05-.11-.11v-.04c-.01-1.73 1.66-3.14 3.72-3.15h.4c2.07-.01 3.75 1.38 3.76 3.11v.04c0 .06-.05.11-.11.11zm-124.07-.02a.15.15 0 0 1-.14-.14v-.08c0-1.7 1.69-3.09 3.79-3.09h.18c2.09 0 3.79 1.37 3.79 3.07v.08c0 .08-.06.14-.14.14zm65.68 2.99c.41-.09.82.17.91.58l.02.11c.36 1.62-.76 3.25-2.5 3.63l-1 .22c-1.74.39-3.44-.61-3.8-2.24l-.03-.1c-.09-.41.17-.82.58-.91zm106.12.17c1.16-.04 1.81 1.33 1.04 2.21-2.08 2.37-4.22 2.87-6.43 1.52-1.03-.63-.94-2.15.16-2.65 1.45-.65 3.2-1.01 5.23-1.08"/></svg>